<svg width="48" height="48" viewBox="0 0 48 48" xmlns="http://www.w3.org/2000/svg">
  <defs>
    <linearGradient id="githubGradient" x1="0%" y1="0%" x2="100%" y2="100%">
      <stop offset="0%" stop-color="#1c1f2f"/>
      <stop offset="100%" stop-color="#3b3f5c"/>
    </linearGradient>
  </defs>
  <rect width="48" height="48" rx="12" fill="url(#githubGradient)"/>
  <path
    d="M24 12c-6.6 0-12 5.4-12 12 0 5.3 3.4 9.9 8.2 11.5.6.1.8-.2.8-.5v-3.6c-3.3.7-4-1.6-4-1.6-.6-1.6-1.5-2-1.5-2-1.2-.8.1-.8.1-.8 1.2.1 1.8 1.3 1.8 1.3 1 .1.8 2.3 3.4 1.7v-2.1c-2.7-.3-4.6-1.5-4.6-4.7 0-1 .3-1.8.9-2.6-.1-.3-.4-1.3.1-2.7 0 0 .8-.3 2.7 1 1-.3 2-.4 3-.4s2 .1 3 .4c1.9-1.2 2.7-1 2.7-1 .5 1.4.2 2.4.1 2.7.6.8.9 1.6.9 2.6 0 3.2-1.9 4.4-4.6 4.7v2.2c0 .3.2.6.8.5 4.9-1.6 8.3-6.1 8.3-11.5.2-6.6-5.2-12-11.8-12z"
    fill="#f5f5f5"
  />
</svg>
